<?xml version="1.0" encoding="utf-8"?>
<!-- Generator: Adobe Illustrator 22.1.0, SVG Export Plug-In . SVG Version: 6.00 Build 0)  -->
<svg version="1.1" id="Layer_1" xmlns="http://www.w3.org/2000/svg" xmlns:xlink="http://www.w3.org/1999/xlink" x="0px" y="0px"
	 viewBox="0 0 288 288" style="enable-background:new 0 0 288 288;" xml:space="preserve">
<style type="text/css">
	.st0{fill:#ECED98;}
</style>
<g>
	<path class="st0" d="M160,6.9c3.4,0.8,6.9,1.3,10.3,2.4c2.7,0.9,5.4,2.1,7.6,3.7c5.6,4,5.7,10.4-0.1,14.2
		c-3.5,2.2-7.6,3.8-11.6,4.7c-11,2.3-22,2.2-32.8-1.5c-2.2-0.8-4.5-1.8-6.4-3.2c-5.6-4.1-5.7-10.7,0.3-14.1c4.5-2.6,9.9-3.6,15-5.4
		c0.8-0.3,1.7-0.5,2.6-0.7C150,6.9,155,6.9,160,6.9z M131.5,20.2c6.7,7,37.8,6.4,42.1-0.2C167.8,13,135.7,13.4,131.5,20.2z"/>
	<path class="st0" d="M173.1,128.6c3.2,2.4,6.3,4.6,9.5,7c13.3-11,28.9-18.5,44.1-26.6c11.1-5.9,22.5-11.1,34.2-15.7
		c9.3-3.7,11.8-1.4,11.1,8.6c-0.5,7-3.4,13.2-8,18.2c-6.9,7.4-14.5,14.2-21.8,21.2c-0.6,0.6-1.4,1.1-1.9,2.1
		c2.4-0.7,4.7-1.6,7.2-2.2c5.4-1.3,10.7-1.2,15.2,2.7c4.5,4,5.5,8.5,2,13.4c-2.5,3.5-5.5,7-9,9.2c-10,6.1-20.4,11.6-30.7,17.3
		c-1,0.5-2,0.9-3.2,1.5c3.8,2.1,7.4,3.7,10.6,5.9c5.4,3.6,5.5,6.7,0.7,10.8c-6.7,5.7-14.2,10-22.4,13.1c-2.1,0.8-2.8,1.7-2.7,4.2
		c0.2,9,0.4,18.1-0.4,27c-0.9,10.3-7.2,17.2-16.5,21.5c-9,4.1-18.5,5.8-28.2,6.5c-15.5,1-30.8,0.3-45.6-5.3
		c-13.4-5-19.7-15-20.1-28.9c-0.2-6.8,0.2-13.7,0.5-20.6c0.1-2.5-0.5-3.6-2.9-4.5c-8.3-3.1-15.9-7.5-22.6-13.3
		c-4.5-3.9-4.5-6.6,0.5-10.1c3.3-2.3,7.1-4.1,11.2-6.4c-1.4-0.7-2.7-1.3-4.1-1.9c-10.7-4.7-21.1-9.9-30.4-17.1
		c-2.8-2.2-5.4-4.6-7.5-7.4c-5.7-7.6-1.8-16.9,7.7-17.9c4.2-0.4,8.5,1,12.7,1.6c1,0.1,1.9,0.7,3.1,0.5c-3.5-2.9-7-5.7-10.4-8.6
		c-6.6-5.8-12.9-12.1-17.2-19.9c-3.4-6-5.4-12.3-4-19.4c0.5-2.6,1.9-3.8,4.2-3.3c4.9,1.2,10,2,14.4,4.2
		c16.9,8.4,33.6,17.1,50.1,26.1c7.1,3.8,13.7,8.5,20.8,13c2.6-1.9,5.7-4.2,9.1-6.7c-18.3-9.7-28.4-24.8-28.2-45.6
		c0.1-14.2,6-26.1,16.7-35.6c20.7-18.3,52.9-15.2,70.2,6.6C208.4,76,204.4,112.8,173.1,128.6z"/>
</g>
</svg>
