<?xml version="1.0" encoding="utf-8"?>
<!-- Generator: Adobe Illustrator 22.1.0, SVG Export Plug-In . SVG Version: 6.00 Build 0)  -->
<svg version="1.1" id="Layer_1" xmlns="http://www.w3.org/2000/svg" xmlns:xlink="http://www.w3.org/1999/xlink" x="0px" y="0px"
	 viewBox="0 0 288 288" style="enable-background:new 0 0 288 288;" xml:space="preserve">
<style type="text/css">
	.st0{fill:#ED2024;}
</style>
<g>
	<path class="st0" d="M82.1,258.3c-6.7,2.2-13,4.7-19.5,6.4c-19.9,5-36.7-1.8-45.3-18.4c-2.7-5.3-4.7-11.2-5.8-17.1
		c-2.8-15.5-1.2-30.6,6.5-44.5c2.1-3.7,5-7,7.8-10.8c-1.7-1.5-3.7-3.2-6.2-5.4c8.7-2.4,17-4.7,25.7-7.1c-1.5,8.3-3,16.2-4.6,24.7
		c-2.8-2.3-5.2-4.3-8.4-6.8c-2.3,2.8-5.2,5.3-6.8,8.4c-9.5,18.1-10.2,36.6-1.2,55c6.3,12.9,19,18.1,34.4,14.7
		c6.5-1.4,12.7-4.2,19-6.6c0.8-0.3,1.7-1.7,1.7-2.7c0.2-10.2,0.2-20.3,0.5-30.5c0.2-8.1,0.5-16.3,1.2-24.3
		c1.9-19.9,8.3-37.9,22.8-52.3c3.1-3,6.7-5.5,10.3-8.4c-0.7-0.4-1.5-0.9-2.3-1.4C83.3,115.7,77.3,77.7,100,54.3
		c1.5-1.6,1.9-3,1.4-5.1c-2.6-11.1,3.9-25.6,13.2-29.8c0,3.6-0.1,7.2,0.1,10.8c0.1,1.7,0.7,3.4,1.2,5c2.4,6.6,2.6,6.5,9.3,5.5
		c4.2-0.6,8.4-1,12.6-0.8c4.1,0.2,8.1,1.1,12.4,1.8c5-6.6,6.1-14.2,4.2-23.1c7.4,5,12.2,11.2,13.7,19.4c0.7,4-0.1,8.3-0.1,12.5
		c0,1,0.1,2.3,0.8,2.9c24,23.5,17.6,63.9-12.7,78.7c-0.3,0.1-0.6,0.3-0.4,0.2c5.9,5.4,11.6,10.7,17.2,15.8
		c6.6-6.6,13.6-13.7,20.9-21c-2-3.5-4.1-7.8-2.9-12.7c0.5-1.9,1.1-3.7,2-5.4c5.6-10.5,11.2-20.9,16.9-31.4c0.1-0.3,0.4-0.4,1-0.9
		c0.5,7.2,1,14,1.5,21.6c-1.4-1.3-2.2-2-3.4-3.2c-3.3,6.2-6.9,12.2-9.7,18.5c-1,2.2,0,5.2,0.1,8.2c7.3-7.3,14.1-13.9,20.8-20.5
		c-0.3-0.2-0.8-0.7-1.6-1.3c6.3-3.3,12.4-6.5,19.5-10.2c-3.6,6.9-6.8,13-10.2,19.7c-0.6-0.8-1-1.3-1.2-1.6c-6.6,6.6-13.3,13.3-20,20
		c2.9,1.6,6.1,1.9,9.4,0.1c5.4-2.9,10.8-6,16.4-9.2c-0.9-1-1.6-1.9-2.9-3.4c7.5,0.5,14.3,1,21.4,1.5c-0.3,0.5-0.5,0.8-0.7,0.9
		c-9.4,5-18.9,9.7-28,15.2c-7.5,4.5-14.5,5.8-21.7,0.8c-7.7,7.7-15.2,15.2-22.9,22.9c8.4,15.4,11.5,32.3,11.5,50.1
		c0,9,1.3,18,1.4,27.1c0.1,6.1-0.2,12.4-1.2,18.4c-1.5,8.9-6.9,15.2-15,19.2c-9.3,4.6-19.3,6.4-29.4,7.1c-14.7,1-29.3,0.4-43.4-4.5
		C93.1,271.1,85.9,266.7,82.1,258.3z"/>
</g>
</svg>
